<svg version="1.1" xmlns="http://www.w3.org/2000/svg" xmlns:xlink="http://www.w3.org/1999/xlink" width="280" height="420" viewBox="0 0 280 420"><g id="bg_contact_02"><path id="Shape-1" d="M278.003,419.992 C258.587,418.859 238.369,413.090 216.022,403.053 C183.143,388.289 159.470,369.189 145.663,346.281 C139.252,335.645 135.846,325.388 135.539,315.796 C135.498,314.511 135.512,313.201 135.582,311.837 C151.666,328.236 167.422,338.619 183.686,343.544 C209.009,351.208 236.126,343.882 249.629,325.729 C257.068,315.727 261.019,302.190 261.715,284.352 C262.029,276.282 261.800,266.916 257.723,258.633 C254.192,251.451 247.792,245.219 238.699,240.108 C212.879,225.590 178.882,229.293 159.621,248.721 C148.679,259.754 142.795,274.525 138.485,287.519 C136.626,293.124 134.648,299.651 133.702,306.384 C131.782,304.332 129.900,302.251 128.086,300.172 C108.828,278.108 95.663,256.742 87.836,234.856 C78.615,209.076 77.279,182.263 84.124,159.250 C84.124,159.250 81.821,158.565 81.821,158.565 C74.852,182.039 76.182,209.414 85.574,235.673 C93.503,257.848 106.818,279.466 126.278,301.762 C128.546,304.360 130.920,306.966 133.340,309.512 C133.138,311.757 133.071,313.845 133.137,315.878 C133.457,325.888 136.980,336.538 143.606,347.531 C157.671,370.865 181.703,390.286 215.036,405.254 C229.597,411.793 256.420,419.993 256.420,419.993 C256.420,419.993 278.003,419.992 278.003,419.992 zM138.088,297.093 C138.915,293.991 139.854,291.023 140.765,288.276 C144.988,275.549 150.732,261.099 161.324,250.419 C179.850,231.732 212.608,228.204 237.521,242.211 C246.183,247.079 252.255,252.964 255.568,259.703 C259.407,267.503 259.616,276.495 259.313,284.262 C258.641,301.601 254.844,314.694 247.704,324.289 C234.795,341.644 208.757,348.613 184.384,341.237 C168.027,336.283 152.144,325.619 135.841,308.643 C136.266,304.712 137.097,300.808 138.088,297.093 z" fill="#B6B7BA" /><path id="Shape-2" d="M58.541,98.555 L81.166,164.011 L89.543,119.734 L268.000,10.007 L58.541,98.555 z" fill="#F9C4C1" /><path id="Shape-3" d="M89.627,119.749 L267.872,10.005 L156.426,154.971 L89.627,119.749 zM58.662,98.972 L0.995,77.628 L267.872,10.005 L58.662,98.972 z" fill="#F28277" /><path id="Shape-4" d="M124.294,138.058 L80.682,164.207 L89.480,119.455 L124.294,138.058 z" fill="#F3938E" /></g></svg>