<svg version="1.1" xmlns="http://www.w3.org/2000/svg" xmlns:xlink="http://www.w3.org/1999/xlink" width="210" height="420" viewBox="0 0 210 420"><g id="bg_contact_01"><path id="Shape-1" d="M163.997,419.995 C172.533,404.964 174.011,405.030 181.575,385.355 C192.705,356.410 195.577,330.378 190.110,307.984 C187.572,297.586 183.428,289.238 177.794,283.174 C177.039,282.361 176.235,281.567 175.364,280.774 C175.490,300.557 172.164,316.456 165.215,329.316 C154.393,349.338 133.376,361.259 114.107,358.305 C103.491,356.677 92.860,350.772 81.608,340.261 C76.518,335.505 70.974,329.627 68.438,322.084 C66.236,315.545 66.364,307.852 68.818,299.217 C75.785,274.695 98.806,256.391 122.367,256.640 C135.751,256.780 148.311,262.272 158.831,267.627 C163.369,269.937 168.540,272.740 173.204,276.294 C173.132,273.874 173.018,271.460 172.865,269.088 C171.241,243.912 166.318,222.851 157.817,204.701 C147.804,183.322 132.347,166.080 114.196,156.120 C114.196,156.120 115.188,154.306 115.188,154.306 C133.694,164.475 149.496,182.056 159.695,203.833 C168.309,222.221 173.294,243.528 174.935,268.968 C175.126,271.933 175.257,274.967 175.324,277.992 C176.810,279.245 178.118,280.485 179.311,281.770 C185.191,288.099 189.503,296.757 192.126,307.504 C197.694,330.316 194.796,356.762 183.513,386.108 C178.584,398.927 167.181,419.934 167.181,419.934 C167.181,419.934 163.997,419.995 163.997,419.995 zM164.885,273.254 C162.497,271.854 160.121,270.603 157.897,269.471 C147.592,264.227 135.312,258.847 122.357,258.712 C99.695,258.471 77.536,276.132 70.815,299.793 C68.476,308.019 68.338,315.300 70.404,321.435 C72.792,328.539 78.122,334.176 83.021,338.752 C93.956,348.972 104.223,354.698 114.409,356.258 C132.831,359.082 152.972,347.595 163.389,328.325 C170.376,315.390 173.609,299.243 173.268,278.973 C170.622,276.821 167.745,274.931 164.885,273.254 z" fill="#B6B7BA" /><path id="Shape-2" d="M139.987,112.615 L114.107,155.977 L114.709,123.125 L3.626,18.273 L139.987,112.615 z" fill="#F9C4C1" /><path id="Shape-3" d="M139.839,112.894 L3.718,18.291 L184.176,106.229 L139.839,112.894 zM61.727,138.338 L3.718,18.291 L114.646,123.124 L61.727,138.338 z" fill="#F28277" /><path id="Shape-4" d="M87.178,131.041 L114.424,156.189 L114.795,122.936 L87.178,131.041 z" fill="#F3938E" /></g></svg>